<svg width="700" height="700" viewBox="0 0 700 700" fill="none" xmlns="http://www.w3.org/2000/svg">
<path d="M350 0C361.046 0 370 8.95431 370 20V230C370 246.573 374.033 262.204 381.169 275.967C395.778 271.258 409.519 263.104 421.119 251.505L516.767 155.858C524.577 148.048 537.24 148.048 545.051 155.858C552.861 163.669 552.861 176.332 545.051 184.143L449.404 279.79C437.906 291.289 429.793 304.89 425.065 319.357C438.576 326.164 453.84 330 470 330H680C691.046 330 700 338.954 700 350C700 361.046 691.046 370 680 370H470C453.729 370 438.367 373.887 424.789 380.781C429.473 395.57 437.678 409.484 449.404 421.211L544.767 516.573C552.577 524.384 552.577 537.048 544.767 544.858C536.956 552.669 524.292 552.669 516.481 544.858L421.119 449.495C409.403 437.779 395.502 429.579 380.729 424.893C373.867 438.445 370 453.771 370 470V680C370 691.046 361.046 700 350 700C338.954 700 330 691.046 330 680V470C330 453.861 326.174 438.615 319.384 425.118C304.873 429.84 291.227 437.965 279.697 449.495L184.427 544.767C176.616 552.577 163.952 552.577 156.142 544.767C148.331 536.956 148.331 524.293 156.142 516.482L251.414 421.21C263.045 409.579 271.21 395.795 275.913 381.142C262.163 374.023 246.552 370 230 370H20C8.95431 370 0 361.046 0 350C0 338.954 8.95431 330 20 330H230C246.44 330 261.952 326.031 275.634 319.002C270.89 304.668 262.818 291.194 251.413 279.789L155.857 184.233C148.047 176.423 148.047 163.76 155.857 155.949C163.668 148.139 176.331 148.139 184.142 155.949L279.698 251.505C291.113 262.919 304.601 270.995 318.949 275.737C326.011 262.03 330 246.481 330 230V20C330 8.95431 338.954 0 350 0Z" fill="white"/>
</svg>
