<svg width="700" height="700" viewBox="0 0 700 700" fill="none" xmlns="http://www.w3.org/2000/svg">
<path d="M350 0C361.046 0 370 8.95431 370 20V230C370 246.574 374.033 262.205 381.17 275.968C395.779 271.259 409.52 263.106 421.12 251.506L516.768 155.858C524.578 148.048 537.241 148.048 545.052 155.858C552.862 163.669 552.862 176.332 545.052 184.143L449.404 279.79C437.906 291.289 429.793 304.89 425.065 319.357C438.576 326.164 453.84 330 470 330H680C691.046 330 700 338.954 700 350C700 361.046 691.046 370 680 370H470C453.729 370 438.367 373.887 424.789 380.781C429.473 395.57 437.678 409.484 449.404 421.211L544.767 516.573C552.577 524.384 552.577 537.048 544.767 544.858C536.956 552.669 524.293 552.669 516.482 544.858L421.119 449.495C409.403 437.779 395.502 429.579 380.729 424.893C373.867 438.445 370 453.771 370 470V680C370 691.046 361.046 700 350 700C338.954 700 330 691.046 330 680V470C330 453.861 326.174 438.615 319.384 425.118C304.873 429.84 291.227 437.965 279.697 449.495L184.427 544.768C176.616 552.578 163.952 552.578 156.142 544.768C148.331 536.957 148.332 524.294 156.142 516.483L251.414 421.211C263.045 409.58 271.21 395.795 275.913 381.142C262.163 374.023 246.552 370 230 370H20C8.95431 370 0 361.046 0 350C0 338.954 8.95431 330 20 330H230C246.44 330 261.952 326.032 275.634 319.003C270.89 304.669 262.818 291.194 251.414 279.79L155.857 184.233C148.047 176.423 148.048 163.76 155.858 155.949C163.669 148.139 176.332 148.139 184.143 155.949L279.698 251.506C291.112 262.92 304.6 270.996 318.948 275.738C326.011 262.031 330 246.482 330 230V20C330 8.95431 338.954 0 350 0Z" fill="black"/>
</svg>
