<svg width="8045" height="8045" viewBox="0 0 8045 8045" fill="none" xmlns="http://www.w3.org/2000/svg">
<rect width="8045" height="8045" fill="white"/>
<g filter="url(#filter0_f_357_95)">
<rect width="650.286" height="650.286" transform="matrix(0.866025 -0.5 0.866025 0.5 3177.66 3209.43)" fill="black"/>
<rect width="650.286" height="650.286" transform="matrix(0.866025 -0.5 0.866025 0.5 3740.82 2884.29)" fill="black"/>
<rect width="650.286" height="650.286" transform="matrix(0.866025 -0.5 0.866025 0.5 4867.15 3534.57)" fill="black"/>
<rect width="650.286" height="650.286" transform="matrix(0.866025 -0.5 0.866025 0.5 4867.15 2884.29)" fill="black"/>
<rect width="650.286" height="650.286" transform="matrix(0.866025 -0.5 0.866025 0.5 5993.48 3534.57)" fill="black"/>
<rect width="650.286" height="650.286" transform="matrix(0.866025 -0.5 0.866025 0.5 4867.15 4184.86)" fill="black"/>
<rect width="650.286" height="650.286" transform="matrix(0.866025 -0.5 0.866025 0.5 3740.82 4184.86)" fill="black"/>
<rect width="650.286" height="650.286" transform="matrix(0.866025 -0.5 0.866025 0.5 3177.66 3859.71)" fill="black"/>
<rect width="650.286" height="650.286" transform="matrix(0.866025 -0.5 0.866025 0.5 2051.33 3859.71)" fill="black"/>
<rect width="650.286" height="650.286" transform="matrix(0.866025 -0.5 0.866025 0.5 1488.17 4184.86)" fill="black"/>
<rect width="650.286" height="650.286" transform="matrix(0.866025 -0.5 0.866025 0.5 1488.17 4835.14)" fill="black"/>
<rect width="650.286" height="650.286" transform="matrix(0.866025 -0.5 0.866025 0.5 3177.66 5160.29)" fill="black"/>
<rect width="650.286" height="650.286" transform="matrix(0.866025 -0.5 0.866025 0.5 2051.33 5160.29)" fill="black"/>
<rect width="650.286" height="650.286" transform="matrix(0.866025 -0.5 0.866025 0.5 3740.82 4835.14)" fill="black"/>
</g>
<defs>
<filter id="filter0_f_357_95" x="1484.17" y="2555.14" width="5639.64" height="2934.29" filterUnits="userSpaceOnUse" color-interpolation-filters="sRGB">
<feFlood flood-opacity="0" result="BackgroundImageFix"/>
<feBlend mode="normal" in="SourceGraphic" in2="BackgroundImageFix" result="shape"/>
<feGaussianBlur stdDeviation="2" result="effect1_foregroundBlur_357_95"/>
</filter>
</defs>
</svg>
